<svg width="8" height="9" viewBox="0 0 8 9" fill="none" xmlns="http://www.w3.org/2000/svg">
    <path d="M1.84496 8.32391C1.73069 8.21112 1.6665 8.05817 1.6665 7.89869C1.6665 7.73921 1.73069 7.58626 1.84496 7.47348L4.86197 4.49637L1.84496 1.51926C1.73393 1.40583 1.6725 1.2539 1.67389 1.09621C1.67527 0.938514 1.73938 0.787666 1.85238 0.676155C1.96539 0.564644 2.11826 0.501392 2.27807 0.500022C2.43787 0.498652 2.59183 0.559273 2.70679 0.668829L6.15472 4.07115C6.26898 4.18394 6.33317 4.33689 6.33317 4.49637C6.33317 4.65585 6.26898 4.8088 6.15472 4.92158L2.70679 8.32391C2.59249 8.43666 2.43749 8.5 2.27587 8.5C2.11425 8.5 1.95925 8.43666 1.84496 8.32391Z"
          fill="#777575"/>
</svg>
