<svg width="32" height="32" viewBox="0 0 32 32" fill="none" xmlns="http://www.w3.org/2000/svg">
    <path d="M16 29.3333C14.1778 29.3333 12.4556 28.9831 10.8333 28.2827C9.21112 27.5822 7.79467 26.6267 6.58401 25.416C5.37334 24.2053 4.41778 22.7889 3.71734 21.1667C3.01689 19.5444 2.66667 17.8222 2.66667 16C2.66667 14.1556 3.01689 12.428 3.71734 10.8173C4.41778 9.20666 5.37334 7.79555 6.58401 6.584C7.79467 5.37244 9.21112 4.41689 10.8333 3.71733C12.4556 3.01778 14.1778 2.66755 16 2.66666C17.8444 2.66666 19.5724 3.01689 21.184 3.71733C22.7956 4.41778 24.2062 5.37333 25.416 6.584C26.6258 7.79466 27.5813 9.20577 28.2827 10.8173C28.984 12.4289 29.3342 14.1564 29.3333 16C29.3333 17.8222 28.9831 19.5444 28.2827 21.1667C27.5822 22.7889 26.6267 24.2058 25.416 25.4173C24.2053 26.6289 22.7942 27.5844 21.1827 28.284C19.5711 28.9836 17.8436 29.3333 16 29.3333ZM16 26.6C16.5778 25.8 17.0778 24.9667 17.5 24.1C17.9222 23.2333 18.2667 22.3111 18.5333 21.3333H13.4667C13.7333 22.3111 14.0778 23.2333 14.5 24.1C14.9222 24.9667 15.4222 25.8 16 26.6ZM12.5333 26.0667C12.1333 25.3333 11.7836 24.572 11.484 23.7827C11.1844 22.9933 10.9342 22.1769 10.7333 21.3333H6.8C7.44445 22.4444 8.25023 23.4111 9.21734 24.2333C10.1844 25.0556 11.2898 25.6667 12.5333 26.0667ZM19.4667 26.0667C20.7111 25.6667 21.8169 25.0556 22.784 24.2333C23.7511 23.4111 24.5564 22.4444 25.2 21.3333H21.2667C21.0667 22.1778 20.8169 22.9947 20.5173 23.784C20.2178 24.5733 19.8676 25.3342 19.4667 26.0667ZM5.66667 18.6667H10.2C10.1333 18.2222 10.0836 17.7836 10.0507 17.3507C10.0178 16.9178 10.0009 16.4676 10 16C9.99912 15.5324 10.016 15.0827 10.0507 14.6507C10.0853 14.2187 10.1351 13.7796 10.2 13.3333H5.66667C5.55556 13.7778 5.47245 14.2169 5.41734 14.6507C5.36223 15.0844 5.33423 15.5342 5.33334 16C5.33245 16.4658 5.36045 16.916 5.41734 17.3507C5.47423 17.7853 5.55734 18.224 5.66667 18.6667ZM12.8667 18.6667H19.1333C19.2 18.2222 19.2502 17.7836 19.284 17.3507C19.3178 16.9178 19.3342 16.4676 19.3333 16C19.3324 15.5324 19.3156 15.0827 19.2827 14.6507C19.2498 14.2187 19.2 13.7796 19.1333 13.3333H12.8667C12.8 13.7778 12.7502 14.2169 12.7173 14.6507C12.6844 15.0844 12.6676 15.5342 12.6667 16C12.6658 16.4658 12.6827 16.916 12.7173 17.3507C12.752 17.7853 12.8018 18.224 12.8667 18.6667ZM21.8 18.6667H26.3333C26.4444 18.2222 26.528 17.7836 26.584 17.3507C26.64 16.9178 26.6676 16.4676 26.6667 16C26.6658 15.5324 26.6382 15.0827 26.584 14.6507C26.5298 14.2187 26.4462 13.7796 26.3333 13.3333H21.8C21.8667 13.7778 21.9169 14.2169 21.9507 14.6507C21.9844 15.0844 22.0009 15.5342 22 16C21.9991 16.4658 21.9822 16.916 21.9493 17.3507C21.9164 17.7853 21.8667 18.224 21.8 18.6667ZM21.2667 10.6667H25.2C24.5556 9.55555 23.7502 8.58889 22.784 7.76666C21.8178 6.94444 20.712 6.33333 19.4667 5.93333C19.8667 6.66666 20.2169 7.428 20.5173 8.21733C20.8178 9.00666 21.0676 9.82311 21.2667 10.6667ZM13.4667 10.6667H18.5333C18.2667 9.68889 17.9222 8.76666 17.5 7.9C17.0778 7.03333 16.5778 6.2 16 5.4C15.4222 6.2 14.9222 7.03333 14.5 7.9C14.0778 8.76666 13.7333 9.68889 13.4667 10.6667ZM6.8 10.6667H10.7333C10.9333 9.82222 11.1836 9.00533 11.484 8.216C11.7844 7.42666 12.1342 6.66577 12.5333 5.93333C11.2889 6.33333 10.1831 6.94444 9.216 7.76666C8.24889 8.58889 7.44356 9.55555 6.8 10.6667Z"
          fill="#59E970"/>
</svg>
